<?xml version="1.0" encoding="UTF-8"?> <svg xmlns="http://www.w3.org/2000/svg" width="60" height="35" viewBox="0 0 60 35" fill="none"><path d="M18.755 0H16.3534C16.298 0 16.2463 0.0319974 16.2223 0.0813649L0.192173 33.2682C0.14599 33.3633 0.216188 33.4739 0.323333 33.4739H2.93452C2.99086 33.4739 3.04259 33.441 3.0666 33.3898L8.00079 22.7246C8.01742 22.6889 8.05344 22.6661 8.09316 22.6661H26.9247C26.9644 22.6661 27.0005 22.6889 27.0171 22.7246L31.9513 33.3898C31.9753 33.441 32.0261 33.4739 32.0834 33.4739H34.7851C34.8922 33.4739 34.9624 33.3633 34.9162 33.2682L18.8861 0.0813649C18.8621 0.0310832 18.8113 0 18.755 0ZM9.2662 20.0569L17.4387 3.42373C17.4757 3.34785 17.5847 3.34785 17.6216 3.42373L25.7526 20.056C25.7849 20.1227 25.736 20.2004 25.6612 20.2004H9.35765C9.28283 20.2004 9.23295 20.1227 9.2662 20.056V20.0569Z" fill="white"></path><path d="M56.8797 15.0032C54.8208 13.1821 51.9113 12.2587 48.2314 12.2587C45.3349 12.2587 42.8668 12.8109 40.8967 13.9006C39.5841 14.6265 38.5386 15.5627 37.771 16.6945C37.6906 16.8133 37.5031 16.7575 37.5059 16.614C37.5955 12.0201 38.4942 8.49764 40.1827 6.13714C41.9358 3.68431 44.583 2.44006 48.0495 2.44006C50.3014 2.44006 52.1792 2.9054 53.6293 3.82418C55.0564 4.72834 55.9828 6.03292 56.3827 7.70136L56.4363 7.92534C56.452 7.99025 56.5102 8.03596 56.5776 8.03596H58.8508C58.9422 8.03596 59.0106 7.95277 58.993 7.86409L58.9274 7.53497L58.8554 7.18757C58.3834 4.91392 57.1928 3.12847 55.3178 1.87965C53.4621 0.645463 51.0477 0.0201416 48.1409 0.0201416C39.3366 0.0201416 34.8726 6.20936 34.8726 18.4168C34.8726 23.3106 35.9791 27.0808 38.1626 29.6242C40.36 32.1849 43.5947 33.484 47.777 33.484C50.2164 33.484 52.3888 33.0168 54.2343 32.0962C56.0909 31.1692 57.5318 29.8756 58.5173 28.2501C59.501 26.6274 59.9998 24.7414 59.9998 22.646C59.9998 19.406 58.9505 16.8343 56.8806 15.0023L56.8797 15.0032ZM54.7645 28.7712C53.0529 30.2934 50.7013 31.065 47.7761 31.065C44.8509 31.065 42.4734 30.234 40.7018 28.5957C38.9376 26.9638 38.0426 24.7807 38.0426 22.1066C38.0426 19.833 38.9108 18.0713 40.6972 16.7192C42.4881 15.3643 44.9312 14.6777 47.9571 14.6777C50.983 14.6777 53.3947 15.367 54.9723 16.7274C56.5342 18.0758 57.3267 20.0816 57.3267 22.6917C57.3267 25.3018 56.464 27.26 54.7636 28.7721L54.7645 28.7712Z" fill="white"></path></svg> 