<svg viewBox="0 0 124 37" fill="none" xmlns="http://www.w3.org/2000/svg" x="0" y="0"><path id="Vector" d="M19.744,36.6805l-1.351,-2.1053h-0.398v2.4233h0.338v-1.8954l1.214,1.8969h0.391l1.216,-1.8985v1.897h0.338v-2.4233h-0.398l-1.348,2.1053zM58.02,36.5771l-2.362,-2.0003h-0.338v2.4247h0.338v-1.9756l2.362,1.9756h0.337v-2.4247h-0.337zM40.704,37.0015h2.871v-0.338h-2.533v-0.7069h1.932v-0.338h-1.932v-0.7054h2.533v-0.338h-2.871v2.4248zM48.012,37.0015h2.871v-0.338h-2.533v-0.7069h1.932v-0.338h-1.932v-0.7054h2.533v-0.338h-2.871v2.4248zM28.542,34.6879c-0.132,-0.0741 -0.286,-0.1111 -0.463,-0.1111h-2.15v2.4247h0.338v-0.6312h1.812c0.266,0 0.48,-0.0818 0.642,-0.2454c0.162,-0.1621 0.244,-0.3782 0.244,-0.6437c0,-0.1821 -0.037,-0.3426 -0.111,-0.4784c-0.076,-0.1359 -0.181,-0.2408 -0.313,-0.3149zM28.476,35.8794c-0.102,0.1035 -0.236,0.1544 -0.4,0.1544h-1.809v-1.119h1.809c0.166,0 0.3,0.0509 0.4,0.1528c0.1,0.1018 0.153,0.2361 0.153,0.4059c0,0.1698 -0.051,0.3056 -0.153,0.4075zM36.353,35.4812c0,-0.1821 -0.037,-0.3426 -0.111,-0.4784c-0.076,-0.1359 -0.18,-0.2408 -0.313,-0.3149c-0.132,-0.0741 -0.286,-0.1111 -0.464,-0.1111h-2.149v2.4247h0.337v-0.6312h1.651l0.582,0.6312h0.465l-0.618,-0.6621c0.148,-0.0371 0.273,-0.108 0.378,-0.213c0.162,-0.1621 0.242,-0.3782 0.242,-0.6467zM35.864,35.8794c-0.101,0.1035 -0.235,0.1544 -0.4,0.1544h-1.809v-1.119h1.809c0.166,0 0.3,0.0509 0.4,0.1528c0.101,0.1018 0.153,0.2361 0.153,0.4059c0,0.1698 -0.051,0.3056 -0.153,0.4075zM10.689,37.0015h2.87v-0.338h-2.533v-0.7069h1.932v-0.338h-1.932v-0.7054h2.533v-0.338h-2.87v2.4248zM35.795,24.9918v-1.9756h-23.322c-5.789,0 -10.501,-4.7199 -10.501,-10.5187c0,-5.7989 4.711,-10.5203 10.501,-10.5203h23.324v-1.9757h-23.324c-6.878,0 -12.473,5.6044 -12.473,12.4975c0,6.8931 5.595,12.4944 12.473,12.4944h23.324zM107.439,34.7265c-0.179,-0.1004 -0.388,-0.1513 -0.63,-0.1513h-0.98c-0.239,0 -0.448,0.0494 -0.627,0.1497c-0.18,0.1004 -0.321,0.2408 -0.421,0.4214c-0.1,0.179 -0.151,0.3889 -0.151,0.6313v0.0247c0,0.2392 0.051,0.4491 0.151,0.6282c0.1,0.1805 0.241,0.321 0.421,0.4213c0.18,0.1004 0.39,0.1513 0.627,0.1513h0.98c0.24,0 0.451,-0.0509 0.63,-0.1513c0.18,-0.1003 0.321,-0.2408 0.421,-0.4213c0.098,-0.1806 0.148,-0.3921 0.148,-0.6344c0,-0.2423 -0.05,-0.46 -0.148,-0.6436c-0.1,-0.1822 -0.241,-0.3242 -0.421,-0.426zM107.435,36.4212c-0.159,0.1621 -0.369,0.2423 -0.628,0.2423h-0.973c-0.258,0 -0.466,-0.0802 -0.626,-0.2392c-0.159,-0.1605 -0.239,-0.3689 -0.239,-0.6267v-0.0169c0,-0.2593 0.08,-0.4677 0.239,-0.6267c0.16,-0.159 0.368,-0.2392 0.626,-0.2392h0.973c0.259,0 0.467,0.0802 0.626,0.2392c0.159,0.159 0.239,0.3704 0.239,0.6328c0,0.2624 -0.079,0.4754 -0.237,0.6359zM97.669,34.9148h1.251v2.0867h0.364v-2.0867h1.257v-0.338h-2.871v0.338zM114.63,35.6186h-1.67c-0.105,0 -0.19,-0.0324 -0.253,-0.0972c-0.064,-0.0649 -0.097,-0.1513 -0.097,-0.2578c0,-0.1065 0.033,-0.1883 0.097,-0.2531c0.063,-0.0649 0.148,-0.0973 0.253,-0.0973h2.25v-0.338h-2.255c-0.205,0 -0.368,0.0633 -0.493,0.1883c-0.126,0.1266 -0.188,0.2964 -0.188,0.5063c0,0.2099 0.063,0.3735 0.188,0.4985c0.125,0.125 0.288,0.1868 0.493,0.1868h1.671c0.106,0 0.191,0.0324 0.254,0.0972c0.063,0.0664 0.095,0.1513 0.095,0.2578c0,0.1065 -0.032,0.1898 -0.095,0.2546c-0.063,0.0649 -0.148,0.0973 -0.254,0.0973h-2.25v0.338h2.256c0.205,0 0.368,-0.0633 0.494,-0.1898c0.125,-0.1282 0.187,-0.2964 0.187,-0.5063c0,-0.2099 -0.062,-0.3735 -0.187,-0.4985c-0.126,-0.1251 -0.291,-0.1868 -0.494,-0.1868zM125.934,15.9656c-3.748,-0.0818 -5.76,-0.2871 -6.963,-1.2147c0.422,-0.7439 1.192,-1.6144 2.215,-2.6872c0.027,-0.0262 0.025,-0.0694 0,-0.0957l-0.037,-0.037c-0.026,-0.0262 -0.067,-0.0262 -0.095,0c-1.068,1.0218 -1.934,1.7904 -2.675,2.2149c-0.901,-1.2132 -1.1,-3.2151 -1.182,-6.9317c0,-0.0371 -0.031,-0.0664 -0.068,-0.0664h-0.072c-0.037,0 -0.068,0.0309 -0.068,0.0679c0,0.0046 0,0.0077 0,0.0124c0.005,0.1373 -0.088,2.3846 -0.106,2.6624c-0.039,0.5758 -0.1,1.3321 -0.24,2.076c-0.045,0.2408 -0.104,0.5155 -0.188,0.7995l-3.714,-7.12c-1.815,-3.4836 -5.377,-5.646 -9.3,-5.646c-3.923,0 -7.483,2.1624 -9.301,5.646l-10.088,19.3396h2.224l9.612,-18.4243c1.479,-2.8292 4.371,-4.5872 7.553,-4.5872c3.181,0 6.078,1.7565 7.553,4.5841l4.256,8.1603c-1.131,0.9107 -2.735,0.9955 -4.161,1.0712c-0.152,0.0077 -0.302,0.0154 -0.45,0.0247c-1.625,0.0957 -7.557,0.1389 -11.719,0.1605l-1.461,0.0077c-0.037,0 -0.068,0.0309 -0.068,0.0679v0.0355c0,0.0371 0.031,0.0679 0.068,0.0679l1.447,0.0077c4.165,0.0217 10.106,0.0649 11.733,0.1606c0.145,0.0092 0.292,0.0169 0.44,0.0247c1.386,0.0725 2.956,0.1559 4.1,1.0171c-0.444,0.7579 -1.222,1.6299 -2.327,2.7844c-0.026,0.0263 -0.025,0.0695 0,0.0957l0.029,0.0293c0.027,0.0263 0.07,0.0263 0.096,0c1.152,-1.1082 2.025,-1.8876 2.781,-2.3321c0.373,0.4862 0.643,1.1174 0.82,1.9262c0.319,1.4462 0.356,2.9681 0.391,4.4406l0.014,0.6143c0,0.037 0.031,0.0663 0.068,0.0663h0.072c0.037,0 0.068,-0.0293 0.068,-0.0663c0.054,-2.4727 0.154,-4.2369 0.509,-5.501l2.899,5.5612h2.224l-3.937,-7.5491c1.216,-0.994 3.33,-1.1823 7.042,-1.2626c0.037,0 0.066,-0.0309 0.066,-0.0679v-0.071c0,-0.037 -0.029,-0.0679 -0.066,-0.0679zM92.894,36.5771l-2.362,-2.0003h-0.338v2.4247h0.338v-1.9756l2.362,1.9756h0.337v-2.4247h-0.337zM70.18,37.0015h0.338v-2.4247h-0.338zM65.26,34.7249c-0.18,-0.0988 -0.388,-0.1497 -0.625,-0.1497h-1.84v2.4248h1.84c0.237,0 0.447,-0.0509 0.625,-0.1528c0.181,-0.1034 0.321,-0.2454 0.421,-0.426c0.1,-0.1821 0.151,-0.3967 0.151,-0.6436c0,-0.247 -0.051,-0.4523 -0.151,-0.6344c-0.1,-0.1806 -0.24,-0.321 -0.421,-0.4214zM65.254,36.4243c-0.158,0.159 -0.365,0.2392 -0.624,0.2392h-1.499v-1.7487h1.499c0.259,0 0.467,0.0802 0.624,0.2408c0.159,0.162 0.239,0.3766 0.239,0.6436c0,0.267 -0.08,0.4692 -0.239,0.6266zM82.886,37.0015h2.871v-0.338h-2.534v-0.7069h1.933v-0.338h-1.933v-0.7054h2.534v-0.338h-2.871v2.4248zM76.703,36.6805l-1.352,-2.1053h-0.397v2.4233h0.337v-1.8954l1.214,1.8969h0.392l1.215,-1.8985v1.897h0.338v-2.4233h-0.398l-1.348,2.1053zM73.832,11.5467c1.24,-1.224 2.011,-2.9233 2.011,-4.8017c0,-3.7183 -3.019,-6.7419 -6.727,-6.7419h-25.122v24.981h29.068c3.708,0 6.727,-3.0236 6.727,-6.7419c0,-3.4542 -2.61,-6.3097 -5.958,-6.694zM45.972,1.9772h23.144c2.621,0 4.755,2.1377 4.755,4.7678c0,2.63 -1.976,4.6026 -4.46,4.7569h-23.439zM73.063,23.0069h-27.089v-9.5201h23.143c0.122,0 0.244,-0.0031 0.364,-0.0108h3.582c2.621,0 4.755,2.1377 4.755,4.7632c0,2.6254 -2.134,4.7677 -4.755,4.7677z" fill="currentColor"/></svg>