<svg width="217" height="67" viewBox="0 0 217 67" fill="none" xmlns="http://www.w3.org/2000/svg">
<path d="M26.1095 9.25806L8.91055 18.6044H43.4586C43.4586 18.6044 25.9998 9.32406 26.1095 9.25806ZM8.78247 22.5204V57.6251H43.8135V22.5204H8.78247ZM37.1315 49.7747C37.1306 50.0564 37.0184 50.3263 36.8196 50.5255C36.6208 50.7248 36.3515 50.8371 36.0703 50.8381H16.705C16.4241 50.8361 16.1553 50.7235 15.9567 50.5245C15.7581 50.3255 15.6457 50.0561 15.6438 49.7747V30.3671C15.6457 30.086 15.7582 29.817 15.9569 29.6186C16.1556 29.4202 16.4245 29.3083 16.705 29.3074H36.0703C36.3508 29.3083 36.6196 29.4202 36.8184 29.6186C37.0171 29.817 37.1296 30.086 37.1315 30.3671V49.7747Z" fill="#E11F1D"/>
<path d="M63.757 27.9324C66.787 25.5564 70.6549 24.3904 74.9766 24.3904C77.4587 24.4384 79.927 24.7743 82.3319 25.3914C82.8333 25.516 83.4992 25.6554 83.4992 25.6554L84.0847 31.7714H83.4919C82.8662 28.9407 80.4656 25.6847 74.4387 25.6847C68.0787 25.6847 62.6738 29.718 62.6738 38.342C62.6738 47.0907 68.2031 51.9087 75.0169 51.9087C80.3815 51.9087 83.3017 48.407 84.2604 45.9504H84.8532L82.793 51.817C82.793 51.817 81.794 52.0664 81.3293 52.2314C79.2004 52.8551 76.9968 53.1856 74.779 53.214C71.0355 53.214 67.4603 52.4624 64.4303 50.4237C61.104 48.132 58.5241 44.3407 58.5241 38.969C58.4951 36.8501 58.9525 34.7527 59.8612 32.8391C60.7698 30.9254 62.1052 29.2466 63.7643 27.9324M139.788 46.7387C139.788 51.113 139.352 51.872 136.984 52.0774H135.839V52.6824H156.383L157.846 46.757C157.846 46.757 157.682 46.7057 157.276 46.603C156.196 48.7664 155.08 50.2257 154.326 50.6364C153.411 51.0947 152.207 51.2634 149.005 51.2634C145.346 51.2634 144.475 50.8051 143.977 50.3064C143.315 49.5914 143.209 48.6197 143.209 46.4197V40.0947C143.209 38.9947 143.333 38.969 144.581 38.969H146.989C148.61 38.969 149.609 39.0094 150.191 39.178C151.022 39.387 151.314 40.0104 151.479 40.7584L151.845 42.3864H152.434V34.096H151.845L151.508 35.8047C151.304 36.8424 151.011 37.0954 150.513 37.2714C150.015 37.4474 148.724 37.5207 146.978 37.5207H144.563C143.315 37.5207 143.191 37.5207 143.191 36.3547V28.0167C143.191 26.4327 143.191 26.352 144.439 26.352H147.432C149.262 26.352 150.59 26.3924 151.457 26.5977C153.62 27.1404 153.993 28.5997 154.615 30.5577L155.208 30.5027L154.553 24.933H136.578V25.5197L137.248 25.604C139.7 25.8937 139.78 26.5207 139.78 30.8547L139.788 46.7387ZM162.64 46.7387C162.64 51.1094 162.556 51.6961 160.145 51.9454L158.9 52.07V52.664H178.397L179.861 46.7387C179.861 46.7387 179.514 46.6177 179.279 46.5554C178.449 48.6784 177.347 50.222 176.517 50.706C175.851 51.0727 174.976 51.2487 171.445 51.2487C168.151 51.2487 167.372 50.75 166.914 50.2917C166.182 49.496 166.04 48.4144 166.04 45.7927V30.8584C166.04 26.484 166.124 25.8204 168.576 25.6114L169.556 25.5197V24.933H158.893V25.5197L159.932 25.604C162.549 25.813 162.633 26.4767 162.633 30.851L162.64 46.7387ZM208.13 52.07V52.664H198.03V52.07C200.741 52.07 200.69 51.1937 200.69 50.7757C200.608 50.0215 200.426 49.2816 200.149 48.5757L198.319 42.9107C198.026 41.994 197.858 41.8694 196.61 41.8694H190.331C189.295 41.8694 189.046 41.994 188.75 42.8667L187.286 47.2411C186.66 49.1147 186.371 50.2404 186.371 50.6987C186.371 51.157 186.737 52.0627 188.933 52.0627V52.6714H180.483V52.092C182.624 52.092 183.777 50.9921 184.348 49.4924C185.098 47.5747 186.258 44.8687 188.007 40.2047L192.976 26.9864L192.801 26.4657L195.538 24.4197L203.248 47.1164C204.145 49.7857 204.712 50.6547 205.521 51.3C206.288 51.8114 207.19 52.082 208.111 52.0774M197.002 38.9104L194.74 32.1197C194.465 31.23 194.145 30.355 193.781 29.4981H193.708C193.587 29.7071 193.17 30.7044 192.713 31.9547L190.093 39.2C189.76 40.1607 189.804 40.201 190.967 40.201H196.09C197.298 40.201 197.379 40.036 197.005 38.9067M99.4431 39.9517C97.7159 36.8314 94.2614 29.7217 93.2954 27.6427C92.5635 26.055 94.2651 25.516 95.3373 25.516V24.9294H85.7132V25.5344C86.6061 25.5344 88.5162 25.901 89.9324 28.64L95.1872 38.9067C96.3912 41.2387 96.5156 41.7374 96.5156 44.04V46.6507C96.5156 51.1094 96.4387 51.6924 94.0236 51.9417L92.2854 52.0664V52.6604H104.149V52.0664L102.418 51.9417C100.175 51.773 99.9261 51.1094 99.9261 46.6507V44.04C99.9261 41.73 99.9261 40.8867 99.4211 39.9444M136.578 52.0664C135.846 52.0664 135.074 51.7437 134.017 50.8747C131.155 48.539 130.379 47.1457 127.064 41.774C126.855 41.4404 125.084 38.793 122.468 38.793H114.999C114.245 38.793 114.209 39.618 114.209 39.618V46.735C114.209 51.1094 114.128 51.652 111.717 51.9417L110.531 52.0664V52.6604H121.143V52.0664L120.122 51.9417C117.711 51.608 117.626 51.1094 117.626 46.735V41.059C117.626 40.1864 117.74 40.047 118.475 40.047H119.892C121.557 40.047 122.01 40.465 122.636 41.3817C123.921 43.2517 125.845 46.5371 126.925 48.0771C129.878 52.2827 131.682 52.6677 135.228 52.6677H136.586L136.578 52.0664ZM117.619 37.3374V27.5474C117.619 26.3814 117.744 26.2127 120.323 26.2127C124.934 26.2127 127.133 29.4577 127.133 32.6294C127.133 35.9697 125.326 37.671 125.128 37.7957C125.334 37.8706 125.554 37.8969 125.772 37.8727C127.309 37.8727 130.895 36.2814 130.895 32.006C130.934 30.8107 130.635 29.6286 130.032 28.5963C129.43 27.5641 128.548 26.7237 127.488 26.1724C125.575 25.131 122.925 24.922 120.345 24.922H110.831V25.5197C110.831 25.5197 114.201 25.56 114.201 28.497V36.5197C114.201 36.5197 114.238 37.3447 114.992 37.3447L117.619 37.3374ZM106.037 27.4814C105.847 28.1267 103.684 32.446 103.684 32.446H104.555L109.338 25.5197V24.933H103.15V25.5197C103.15 25.5197 106.667 25.373 106.037 27.485" fill="white"/>
</svg>
